<?xml version="1.0" encoding="UTF-8" standalone="no"?>
<!-- Created with Inkscape (http://www.inkscape.org/) -->

<svg
   xmlns:dc="http://purl.org/dc/elements/1.1/"
   xmlns:cc="http://creativecommons.org/ns#"
   xmlns:rdf="http://www.w3.org/1999/02/22-rdf-syntax-ns#"
   xmlns:svg="http://www.w3.org/2000/svg"
   xmlns="http://www.w3.org/2000/svg"
   xmlns:sodipodi="http://sodipodi.sourceforge.net/DTD/sodipodi-0.dtd"
   xmlns:inkscape="http://www.inkscape.org/namespaces/inkscape"
   width="40"
   height="40"
   viewBox="0 0 39.999999 39.999998"
   id="svg2"
   version="1.1"
   inkscape:version="0.92.2 (5c3e80d, 2017-08-06)"
   sodipodi:docname="hint_note.svg">
  <defs
     id="defs4" />
  <sodipodi:namedview
     id="base"
     pagecolor="#ffffff"
     bordercolor="#666666"
     borderopacity="1.0"
     inkscape:pageopacity="0.0"
     inkscape:pageshadow="2"
     inkscape:zoom="16"
     inkscape:cx="13.701748"
     inkscape:cy="9.782973"
     inkscape:document-units="px"
     inkscape:current-layer="layer1"
     showgrid="false"
     fit-margin-top="5"
     fit-margin-bottom="5"
     fit-margin-right="10"
     fit-margin-left="0"
     units="px"
     inkscape:window-width="1080"
     inkscape:window-height="1897"
     inkscape:window-x="1912"
     inkscape:window-y="-8"
     inkscape:window-maximized="1" />
  <metadata
     id="metadata7">
    <rdf:RDF>
      <cc:Work
         rdf:about="">
        <dc:format>image/svg+xml</dc:format>
        <dc:type
           rdf:resource="http://purl.org/dc/dcmitype/StillImage" />
        <dc:title></dc:title>
      </cc:Work>
    </rdf:RDF>
  </metadata>
  <g
     inkscape:label="Layer 1"
     inkscape:groupmode="layer"
     id="layer1"
     transform="translate(-126.97262,-254.20846)">
    <g
       transform="matrix(0.69398906,0,0,0.69399162,-272.5744,32.010523)"
       id="layer1-59"
       inkscape:label="Layer 1">
      <g
         inkscape:label="Layer 1"
         id="layer1-2"
         transform="translate(228.92945,-140.87048)">
        <g
           transform="translate(19.76834,-31.449631)"
           id="layer1-5-0"
           inkscape:label="Layer 1">
          <g
             inkscape:label="Layer 1"
             id="layer1-1-5"
             transform="translate(26.058268,61.102145)">
            <g
               id="layer1-8"
               inkscape:label="Layer 1"
               transform="matrix(0.07980392,0,0,0.07980392,293.68759,422.982)">
              <g
                 transform="translate(1496.6206,183.0365)"
                 id="g3375">
                <g
                   id="g3381">
                  <g
                     id="g3383">
                    <g
                       id="g3385">
                      <path
                         id="path3387"
                         d="m -1134.535,12.624 c -149.344,0 -270.842,121.498 -270.842,270.842 0,149.342 121.498,270.838 270.842,270.838 149.342,0 270.84,-121.496 270.84,-270.838 0,-149.344 -121.498,-270.842 -270.84,-270.842 z m 0,478.311 c -114.584,0 -207.471,-92.889 -207.471,-207.469 0,-114.584 92.887,-207.471 207.471,-207.471 114.582,0 207.471,92.887 207.471,207.471 0,114.58 -92.889,207.469 -207.471,207.469 z"
                         inkscape:connector-curvature="0"
                         style="fill:#ff9421;fill-opacity:1" />
                    </g>
                  </g>
                  <g
                     id="g3389">
                    <path
                       style="fill:#ff9421;stroke-width:0.05538315;fill-opacity:1"
                       d="M 15.021484 10.341797 C 13.803168 10.320697 12.524012 10.596335 11.423828 11.333984 C 11.191496 11.480252 10.99084 11.636264 10.828125 11.796875 C 10.742005 11.873915 10.657072 11.953038 10.574219 12.037109 C 7.7376649 14.916651 8.3822682 18.355136 10.574219 20.039062 C 12.106556 21.216313 12.241235 22.787166 12.240234 23.685547 C 12.250604 23.85295 12.248047 24.016213 12.248047 24.152344 L 12.248047 27.4375 C 12.248047 27.975825 12.684278 28.412109 13.222656 28.412109 L 13.521484 28.412109 C 13.652798 29.121181 14.274367 29.658203 15.021484 29.658203 C 15.768491 29.658203 16.388218 29.121181 16.519531 28.412109 L 16.818359 28.412109 C 17.356627 28.412109 17.792969 27.975825 17.792969 27.4375 L 17.792969 24.416016 C 17.792969 24.416016 17.630353 21.678852 19.46875 20.039062 C 21.660645 18.355191 22.305248 14.916706 19.46875 12.037109 C 19.3859 11.952979 19.300964 11.873858 19.214844 11.796875 C 19.052128 11.636264 18.851473 11.480196 18.619141 11.333984 C 17.518956 10.59639 16.239801 10.320696 15.021484 10.341797 z M 14.890625 12.046875 C 14.924075 12.046875 14.958844 12.048228 14.992188 12.048828 C 15.002088 12.048994 15.040981 12.048994 15.050781 12.048828 C 15.084121 12.048274 15.116941 12.046875 15.150391 12.046875 C 15.821024 12.046875 16.801612 12.16914 17.667969 12.75 C 17.681589 12.7591 17.695134 12.768594 17.708984 12.777344 C 17.868543 12.877754 17.964285 12.958924 18.015625 13.009766 C 18.035615 13.029426 18.057135 13.049589 18.078125 13.068359 C 18.140435 13.124129 18.197733 13.179435 18.251953 13.234375 C 19.239987 14.237255 19.723371 15.341905 19.648438 16.429688 C 19.587297 17.31532 19.14363 18.139095 18.429688 18.6875 C 16.932074 19.838087 16.244792 21.292424 16.058594 22.625 L 16.029297 23.177734 L 14.095703 23.177734 L 14.023438 22.681641 C 13.813254 21.352007 13.110008 19.837367 11.613281 18.6875 C 10.899449 18.139095 10.453721 17.31532 10.392578 16.429688 C 10.317538 15.341905 10.80114 14.237255 11.789062 13.234375 C 11.843173 13.179435 11.902649 13.12413 11.964844 13.068359 C 11.985834 13.049589 12.005501 13.029426 12.025391 13.009766 C 12.076901 12.958926 12.172528 12.877754 12.332031 12.777344 C 12.345881 12.768544 12.359527 12.75908 12.373047 12.75 C 13.239515 12.16914 14.219826 12.046875 14.890625 12.046875 z M 13.408203 24.220703 L 16.460938 24.220703 L 16.460938 24.888672 L 13.408203 24.888672 L 13.408203 24.220703 z M 13.408203 25.414062 L 16.460938 25.414062 L 16.460938 26.080078 L 13.408203 26.080078 L 13.408203 25.414062 z M 13.408203 26.607422 L 16.460938 26.607422 L 16.460938 27.273438 L 13.408203 27.273438 L 13.408203 26.607422 z "
                       transform="matrix(18.056067,0,0,18.056,-1405.377,-77.656086)"
                       id="path3391" />
                    <g
                       id="g3397">
                      <g
                         id="g3399" />
                    </g>
                  </g>
                </g>
              </g>
            </g>
          </g>
        </g>
      </g>
    </g>
  </g>
</svg>
