<svg width="1024" height="1024" viewBox="0 0 1024 1024" fill="none" xmlns="http://www.w3.org/2000/svg">
<path d="M956 256V259L512 515L69 259V256L512 0L956 256Z" fill="#B4B2E3"/>
<path d="M956 256V768L512 1024L508.5 514L956 256Z" fill="#615EAD"/>
<path d="M512 512V1024L69 768.007V256L512 512Z" fill="#8986CA"/>
<path d="M322.536 787.542V816.91H535.708C579.201 814.531 622.471 803.023 660.126 780.836C714.159 749.63 756.6 698.424 775.911 638.973C798.904 569.404 791.028 487.215 752.321 425.2C777.928 481.351 774.695 550.449 755.319 609.078C733.833 670.038 690.289 721.307 641.894 749.986C601.42 773.97 563.945 783.464 519.975 787.542H322.536Z" fill="#423F93" fill-opacity="0.8"/>
<path d="M401.2 374.338H500.842C523.004 374.338 542.499 375.949 560.327 378.489C568.478 379.654 576.242 381.181 583.702 382.984C575.549 377.863 566.713 373.348 557.214 369.605C544.272 364.619 529.394 360.884 513.131 358.556C496.268 356.152 477.862 355.363 456.79 355.363L382.321 355.458V417.341H334.073V438.747H401.2V374.338Z" fill="#423F93" fill-opacity="0.8"/>
<path d="M282 255.91L470.904 255.963C505.158 255.91 540.079 259.726 572.649 271.515C636.824 293.404 691.881 341.306 721.607 402.435C750.089 460.05 754.84 528.872 734.701 589.918C715.418 649.387 673.041 700.61 619.088 731.825C581.489 754.018 538.283 765.53 494.855 767.91H282V688.776C282 688.776 420.156 689.679 489.22 689.264C536.46 688.572 583.175 669.118 616.657 635.689C647.1 605.803 666.355 564.542 668.565 521.788C671.079 480.472 657.543 438.659 631.989 406.171C598.313 362.586 544.222 335.992 489.275 335.356C446.428 335.328 403.731 334.991 360.884 334.991V395.343H282V255.91Z" fill="white"/>
</svg>
