<?xml version="1.0" encoding="utf-8"?>
<!-- Generator: Adobe Illustrator 15.1.0, SVG Export Plug-In . SVG Version: 6.00 Build 0)  -->
<!DOCTYPE svg PUBLIC "-//W3C//DTD SVG 1.1//EN" "http://www.w3.org/Graphics/SVG/1.1/DTD/svg11.dtd">
<svg version="1.1" id="Layer_1" xmlns="http://www.w3.org/2000/svg" xmlns:xlink="http://www.w3.org/1999/xlink" x="0px" y="0px"
	 width="40px" height="40px" viewBox="0 0 40 40" enable-background="new 0 0 40 40" xml:space="preserve">
<path fill="#F48120" d="M5.25,3.866v8.586h4.754c0,0,0-2.023,0-3.833c2.86,0,7.376,0,7.376,0c3.993,0,7.297,1.234,9.57,3.574
	c1.992,2.051,3.089,4.824,3.089,7.803c0,5.48-3.962,11.38-12.659,11.38H5.207v4.758H17.38c11.434,0,17.413-8.119,17.413-16.138
	c0-4.228-1.573-8.169-4.432-11.115c-3.188-3.283-7.677-5.015-12.981-5.015H5.25"/>
</svg>
