<?xml version="1.0" encoding="UTF-8" standalone="no"?>
<svg
   xmlns:dc="http://purl.org/dc/elements/1.1/"
   xmlns:cc="http://creativecommons.org/ns#"
   xmlns:rdf="http://www.w3.org/1999/02/22-rdf-syntax-ns#"
   xmlns:svg="http://www.w3.org/2000/svg"
   xmlns="http://www.w3.org/2000/svg"
   version="1.1"
   id="svg2"
   viewBox="0 0 40 39.999889"
   height="39.999889"
   width="40">
  <defs
     id="defs4" />
  <metadata
     id="metadata7">
    <rdf:RDF>
      <cc:Work
         rdf:about="">
        <dc:format>image/svg+xml</dc:format>
        <dc:type
           rdf:resource="http://purl.org/dc/dcmitype/StillImage" />
        <dc:title></dc:title>
      </cc:Work>
    </rdf:RDF>
  </metadata>
  <g
     transform="translate(-46.328966,-395.17151)"
     id="layer1">
    <g
       id="layer1-2"
       transform="matrix(0.69398906,0,0,0.69398906,-314.00547,46.921903)">
      <g
         transform="translate(139.17952,100.06925)"
         id="layer1-3">
        <g
           transform="matrix(0.07980392,0,0,0.07980392,372.44552,392.75583)"
           id="layer1-1">
          <g
             id="g3351"
             transform="translate(802.5732,190.22499)">
            <g
               id="g3355">
              <g
                 id="g3357">
                <path
                   style="fill:#ff9421;fill-opacity:1"
                   d="m -436.535,12.624 c -149.344,0 -270.842,121.498 -270.842,270.842 0,149.342 121.498,270.838 270.842,270.838 149.342,0 270.84,-121.496 270.84,-270.838 0,-149.344 -121.498,-270.842 -270.84,-270.842 z m 0,478.311 c -114.584,0 -207.471,-92.889 -207.471,-207.469 0,-114.584 92.887,-207.471 207.471,-207.471 114.582,0 207.471,92.887 207.471,207.471 0,114.58 -92.889,207.469 -207.471,207.469 z"
                   id="path3359" />
              </g>
            </g>
            <path
               style="fill:#ff9421;fill-opacity:1"
               d="m -531.18,228.954 c 0,0 -0.002,-30.238 -22.797,-34.426 -22.795,-4.187 -24.191,32.1 -5.582,34.426 l 28.379,0 z"
               id="path3361" />
            <path
               id="path3363"
               transform="matrix(18.056067,0,0,18.056067,-707.377,-77.656374)"
               d="M 9.4492188 15.056641 C 9.4492188 15.056641 10.427734 15.975287 10.427734 18.886719 C 10.427734 21.779486 10.605416 25.690279 12.78125 25.740234 C 12.78125 25.740234 13.585937 25.600338 13.585938 24.998047 C 13.585938 24.395756 13.205078 24.146484 13.205078 24.146484 C 13.205078 24.146484 12.713922 23.634317 13.253906 23.28125 C 13.253906 23.28125 13.344239 23.199219 13.849609 23.199219 L 19.539062 23.191406 L 19.662109 23.189453 C 19.562365 22.791581 19.316406 21.652621 19.316406 20.072266 C 19.316406 18.088389 19.034197 15.056641 18.158203 15.056641 L 9.4492188 15.056641 z M 12.333984 17.419922 L 17.28125 17.419922 C 17.437762 17.419922 17.564453 17.546668 17.564453 17.703125 C 17.564453 17.859693 17.437762 17.986328 17.28125 17.986328 L 12.333984 17.986328 C 12.177472 17.986328 12.050781 17.859693 12.050781 17.703125 C 12.050781 17.546668 12.177472 17.419922 12.333984 17.419922 z M 12.490234 19.300781 L 17.435547 19.300781 C 17.592059 19.300781 17.71875 19.427472 17.71875 19.583984 C 17.71875 19.740497 17.592059 19.867188 17.435547 19.867188 L 12.490234 19.867188 C 12.333722 19.867188 12.205078 19.740497 12.205078 19.583984 C 12.205078 19.427472 12.333722 19.300781 12.490234 19.300781 z M 12.824219 21.128906 L 17.771484 21.128906 C 17.927997 21.128851 18.054688 21.255597 18.054688 21.412109 C 18.054688 21.568622 17.927997 21.695313 17.771484 21.695312 L 12.824219 21.695312 C 12.667706 21.695312 12.541016 21.568622 12.541016 21.412109 C 12.541016 21.255597 12.667706 21.128906 12.824219 21.128906 z "
               style="fill:#ff9421;stroke-width:0.05538305;fill-opacity:1" />
            <path
               style="fill:#ff9421;fill-opacity:1"
               d="m -461.398,391.78 c 0,0 32.1,-17.215 0,-40.01 l 155.381,0 c 0,0 15.816,5.119 15.816,20.004 0,14.887 -13.49,20.006 -13.49,20.006 l -157.707,0 z"
               id="path3371" />
            <path
               style="fill:#ff9421"
               d="M -475.82,387.127"
               id="path3373" />
          </g>
        </g>
      </g>
    </g>
  </g>
</svg>
