<?xml version="1.0" encoding="UTF-8" standalone="no"?>
<svg
   xmlns:dc="http://purl.org/dc/elements/1.1/"
   xmlns:cc="http://creativecommons.org/ns#"
   xmlns:rdf="http://www.w3.org/1999/02/22-rdf-syntax-ns#"
   xmlns:svg="http://www.w3.org/2000/svg"
   xmlns="http://www.w3.org/2000/svg"
   version="1.1"
   id="svg2"
   viewBox="0 0 40 39.999878"
   height="39.999878"
   width="40">
  <defs
     id="defs4" />
  <metadata
     id="metadata7">
    <rdf:RDF>
      <cc:Work
         rdf:about="">
        <dc:format>image/svg+xml</dc:format>
        <dc:type
           rdf:resource="http://purl.org/dc/dcmitype/StillImage" />
        <dc:title></dc:title>
      </cc:Work>
    </rdf:RDF>
  </metadata>
  <g
     transform="translate(-142.40304,-442.5915)"
     id="layer1">
    <g
       id="layer1-9"
       transform="matrix(0.69398907,0,0,0.69398907,-202.30781,79.261549)">
      <g
         transform="translate(37.593427,47.218617)"
         id="layer1-8">
        <g
           id="g10"
           transform="matrix(0.07980389,0,0,-0.07980389,458.10848,527.76023)">
          <g
             id="g12"
             transform="scale(0.1,0.1)">
            <path
               d="m 2834.65,759.941 c -1145.83,0 -2074.709,928.889 -2074.709,2074.699 0,1145.83 928.879,2074.71 2074.709,2074.71 1145.82,0 2074.71,-928.88 2074.71,-2074.71 0,-1145.81 -928.89,-2074.699 -2074.71,-2074.699 z m 0,4783.109 c -1493.43,0 -2708.412,-1214.97 -2708.412,-2708.41 0,-1493.41 1214.982,-2708.39 2708.412,-2708.39 1493.43,0 2708.41,1214.98 2708.41,2708.39 0,1493.44 -1214.98,2708.41 -2708.41,2708.41"
               style="fill:#ff9421;fill-opacity:1;fill-rule:nonzero;stroke:none"
               id="path16" />
            <path
               d="m 3446.53,4442.26 c 4.32,-141.66 -19.22,-281.32 -69.82,-390.92 -79.2,-171.58 -249.63,-334.51 -432.81,-376.96 -46.96,-10.89 -92.52,-4.62 -139.61,-6.98 20.99,451.38 238.61,706.13 642.24,774.86"
               style="fill:#ff9421;fill-opacity:1;fill-rule:evenodd;stroke:none"
               id="path18" />
            <path
               d="m 1652.47,3332.32 c 129.94,211.3 380.92,401.69 746.95,363 173.29,-18.31 310.02,-144.49 481.66,-132.64 214.67,14.85 357.39,170.22 649.22,146.61 185.33,-15 341.64,-89.49 453.75,-195.46 15.28,-14.46 105.04,-99.21 104.71,-111.7 -0.68,-26.21 -309.49,-207.02 -335.08,-509.6 -0.6,-7.13 -8.01,-159.33 -6.99,-174.51 20.98,-312.73 215.31,-499.69 446.8,-614.31 -99.48,-269.54 -232.99,-540.6 -411.88,-719.02 -86.93,-86.7 -211.09,-168.94 -376.95,-153.58 -139.4,12.91 -237.91,105.18 -383.95,125.66 -56.68,7.94 -131.56,8.89 -195.47,0 -183.26,-25.49 -292.05,-154.07 -523.55,-125.66 -203.71,25 -402.5,278.59 -530.55,481.68 -177.22,281.07 -266.27,588.47 -293.18,942.4 -2.74,36.08 -25.61,325.69 174.51,677.13"
               style="fill:#ff9421;fill-opacity:1;fill-rule:evenodd;stroke:none"
               id="path20" />
          </g>
        </g>
      </g>
    </g>
  </g>
</svg>
