<?xml version="1.0" encoding="UTF-8" standalone="no"?>
<svg
   xmlns:dc="http://purl.org/dc/elements/1.1/"
   xmlns:cc="http://creativecommons.org/ns#"
   xmlns:rdf="http://www.w3.org/1999/02/22-rdf-syntax-ns#"
   xmlns:svg="http://www.w3.org/2000/svg"
   xmlns="http://www.w3.org/2000/svg"
   version="1.1"
   id="svg2"
   viewBox="0 0 40 40"
   height="40"
   width="40">
  <defs
     id="defs4" />
  <metadata
     id="metadata7">
    <rdf:RDF>
      <cc:Work
         rdf:about="">
        <dc:format>image/svg+xml</dc:format>
        <dc:type
           rdf:resource="http://purl.org/dc/dcmitype/StillImage" />
        <dc:title></dc:title>
      </cc:Work>
    </rdf:RDF>
  </metadata>
  <g
     transform="translate(-267.57853,-396.09787)"
     id="layer1">
    <g
       id="layer1-9"
       transform="matrix(0.69398906,0,0,0.69398906,13.356058,145.40979)">
      <g
         transform="translate(-1.1421178,-70.163962)"
         id="layer1-8">
        <g
           transform="matrix(0.07980392,0,0,0.07980392,358.89318,421.97808)"
           id="layer1-5">
          <g
             id="g3449"
             transform="translate(2930.7592,195.61635)">
            <g
               id="g3453">
              <g
                 id="g3455">
                <path
                   style="fill:#f7a42d"
                   d="m -2552.536,12.623 c -149.343,0 -270.841,121.498 -270.841,270.842 0,149.342 121.498,270.84 270.841,270.84 149.343,0 270.841,-121.498 270.841,-270.84 0,-149.344 -121.498,-270.842 -270.841,-270.842 z m 0,478.313 c -114.583,0 -207.471,-92.889 -207.471,-207.471 0,-114.584 92.888,-207.471 207.471,-207.471 114.582,0 207.471,92.887 207.471,207.471 0,114.582 -92.889,207.471 -207.471,207.471 z"
                   id="path3457" />
              </g>
            </g>
            <g
               id="g3459">
              <path
                 style="fill:#f7a42d"
                 d="m -2619.157,208.348 c 1.875,0.312 3.809,0.742 5.801,1.289 1.992,0.547 4.12,1.211 6.387,1.992 0.858,-1.719 2.011,-3.027 3.457,-3.926 1.444,-0.898 3.261,-1.348 5.449,-1.348 3.827,0 6.522,0.957 8.086,2.871 1.562,1.914 2.382,5.371 2.461,10.371 l 0.234,14.414 0,0.703 c 0,3.906 -1.075,6.875 -3.223,8.906 -2.149,2.031 -5.294,3.047 -9.434,3.047 -2.578,0 -4.591,-0.508 -6.035,-1.523 -1.446,-1.016 -3.028,-3.203 -4.746,-6.562 -2.032,-3.984 -4.825,-7.031 -8.379,-9.141 -3.556,-2.109 -7.559,-3.164 -12.012,-3.164 -6.407,0 -11.407,1.348 -15,4.043 -3.595,2.695 -5.391,6.387 -5.391,11.074 0,3.594 1.055,6.504 3.164,8.73 2.109,2.226 6.952,4.863 14.531,7.91 l 21.797,8.32 c 10.781,4.297 18.398,9.238 22.852,14.824 4.454,5.586 6.68,12.91 6.68,21.973 0,12.891 -3.691,22.754 -11.074,29.59 -7.383,6.836 -18.067,10.254 -32.051,10.254 l -0.703,0 -1.523,25.664 c -0.234,3.516 -1.251,6.072 -3.047,7.676 -1.798,1.6 -4.61,2.402 -8.438,2.402 -3.204,0 -5.528,-0.744 -6.973,-2.227 -1.446,-1.486 -2.168,-3.947 -2.168,-7.383 l 0,-1.875 1.758,-27.188 c -2.657,-0.469 -5.313,-1.152 -7.969,-2.051 -2.657,-0.898 -5.391,-2.051 -8.203,-3.457 -1.172,1.562 -2.481,2.676 -3.926,3.34 -1.446,0.664 -3.574,0.996 -6.387,0.996 -4.219,0 -7.11,-1.035 -8.672,-3.105 -1.563,-2.07 -2.344,-5.84 -2.344,-11.309 l 0,-14.18 c 0,-5.078 0.938,-8.75 2.812,-11.016 1.874,-2.266 4.843,-3.398 8.906,-3.398 6.094,0 10.351,3.281 12.773,9.844 0.624,1.641 1.093,2.852 1.406,3.633 1.718,3.672 5.039,6.621 9.961,8.848 4.922,2.227 10.585,3.34 16.992,3.34 5.78,0 10.292,-1.309 13.535,-3.926 3.241,-2.617 4.863,-6.27 4.863,-10.957 0,-6.25 -6.797,-11.992 -20.391,-17.227 l -0.703,-0.234 -21.562,-8.438 c -8.517,-3.203 -14.883,-7.793 -19.102,-13.77 -4.219,-5.977 -6.328,-13.301 -6.328,-21.973 0,-11.719 3.417,-20.762 10.254,-27.129 6.835,-6.367 17.011,-9.941 30.527,-10.723 l 0.938,-9.375 c 0.234,-3.125 1.289,-5.508 3.164,-7.148 1.875,-1.64 4.413,-2.461 7.617,-2.461 3.281,0 5.819,0.723 7.617,2.168 1.796,1.445 2.695,3.496 2.695,6.152 l 0,1.523 -0.933,10.317 z"
                 id="path3461" />
              <path
                 style="fill:#f7a42d"
                 d="m -2461.657,275.496 -76.406,-36.211 c -4.142,-2.031 -7.09,-4.082 -8.848,-6.152 -1.758,-2.07 -2.637,-4.512 -2.637,-7.324 0,-3.281 0.976,-5.938 2.93,-7.969 1.952,-2.031 4.57,-3.047 7.852,-3.047 1.249,0 2.675,0.234 4.277,0.703 1.601,0.469 3.886,1.367 6.855,2.695 l 92.812,43.359 0.938,0.586 c 8.672,3.984 13.008,8.594 13.008,13.828 0,5.234 -4.181,9.727 -12.539,13.477 -0.782,0.469 -1.406,0.781 -1.875,0.938 l -92.695,42.539 c -2.344,1.094 -4.356,1.875 -6.035,2.344 -1.681,0.469 -3.263,0.703 -4.746,0.703 -3.281,0 -5.899,-0.996 -7.852,-2.988 -1.954,-1.992 -2.93,-4.668 -2.93,-8.027 0,-2.812 0.839,-5.215 2.52,-7.207 1.679,-1.992 4.667,-4.004 8.965,-6.035 l 76.406,-36.212 z"
                 id="path3463" />
            </g>
          </g>
          <g
             transform="translate(2930.7592,195.61635)"
             id="g3546">
            <g
               id="g3550">
              <g
                 id="g3552">
                <path
                   id="path3554"
                   d="m -2552.536,12.623 c -149.343,0 -270.841,121.498 -270.841,270.842 0,149.342 121.498,270.84 270.841,270.84 149.343,0 270.841,-121.498 270.841,-270.84 0,-149.344 -121.498,-270.842 -270.841,-270.842 z m 0,478.313 c -114.583,0 -207.471,-92.889 -207.471,-207.471 0,-114.584 92.888,-207.471 207.471,-207.471 114.582,0 207.471,92.887 207.471,207.471 0,114.582 -92.889,207.471 -207.471,207.471 z"
                   style="fill:#ff9421;fill-opacity:1" />
              </g>
            </g>
            <g
               id="g3556">
              <path
                 id="path3558"
                 d="m -2619.157,208.348 c 1.875,0.312 3.809,0.742 5.801,1.289 1.992,0.547 4.12,1.211 6.387,1.992 0.858,-1.719 2.011,-3.027 3.457,-3.926 1.444,-0.898 3.261,-1.348 5.449,-1.348 3.827,0 6.522,0.957 8.086,2.871 1.562,1.914 2.382,5.371 2.461,10.371 l 0.234,14.414 0,0.703 c 0,3.906 -1.075,6.875 -3.223,8.906 -2.149,2.031 -5.294,3.047 -9.434,3.047 -2.578,0 -4.591,-0.508 -6.035,-1.523 -1.446,-1.016 -3.028,-3.203 -4.746,-6.562 -2.032,-3.984 -4.825,-7.031 -8.379,-9.141 -3.556,-2.109 -7.559,-3.164 -12.012,-3.164 -6.407,0 -11.407,1.348 -15,4.043 -3.595,2.695 -5.391,6.387 -5.391,11.074 0,3.594 1.055,6.504 3.164,8.73 2.109,2.226 6.952,4.863 14.531,7.91 l 21.797,8.32 c 10.781,4.297 18.398,9.238 22.852,14.824 4.454,5.586 6.68,12.91 6.68,21.973 0,12.891 -3.691,22.754 -11.074,29.59 -7.383,6.836 -18.067,10.254 -32.051,10.254 l -0.703,0 -1.523,25.664 c -0.234,3.516 -1.251,6.072 -3.047,7.676 -1.798,1.6 -4.61,2.402 -8.438,2.402 -3.204,0 -5.528,-0.744 -6.973,-2.227 -1.446,-1.486 -2.168,-3.947 -2.168,-7.383 l 0,-1.875 1.758,-27.188 c -2.657,-0.469 -5.313,-1.152 -7.969,-2.051 -2.657,-0.898 -5.391,-2.051 -8.203,-3.457 -1.172,1.562 -2.481,2.676 -3.926,3.34 -1.446,0.664 -3.574,0.996 -6.387,0.996 -4.219,0 -7.11,-1.035 -8.672,-3.105 -1.563,-2.07 -2.344,-5.84 -2.344,-11.309 l 0,-14.18 c 0,-5.078 0.938,-8.75 2.812,-11.016 1.874,-2.266 4.843,-3.398 8.906,-3.398 6.094,0 10.351,3.281 12.773,9.844 0.624,1.641 1.093,2.852 1.406,3.633 1.718,3.672 5.039,6.621 9.961,8.848 4.922,2.227 10.585,3.34 16.992,3.34 5.78,0 10.292,-1.309 13.535,-3.926 3.241,-2.617 4.863,-6.27 4.863,-10.957 0,-6.25 -6.797,-11.992 -20.391,-17.227 l -0.703,-0.234 -21.562,-8.438 c -8.517,-3.203 -14.883,-7.793 -19.102,-13.77 -4.219,-5.977 -6.328,-13.301 -6.328,-21.973 0,-11.719 3.417,-20.762 10.254,-27.129 6.835,-6.367 17.011,-9.941 30.527,-10.723 l 0.938,-9.375 c 0.234,-3.125 1.289,-5.508 3.164,-7.148 1.875,-1.64 4.413,-2.461 7.617,-2.461 3.281,0 5.819,0.723 7.617,2.168 1.796,1.445 2.695,3.496 2.695,6.152 l 0,1.523 -0.933,10.317 z"
                 style="fill:#ff9421;fill-opacity:1" />
              <path
                 id="path3560"
                 d="m -2461.657,275.496 -76.406,-36.211 c -4.142,-2.031 -7.09,-4.082 -8.848,-6.152 -1.758,-2.07 -2.637,-4.512 -2.637,-7.324 0,-3.281 0.976,-5.938 2.93,-7.969 1.952,-2.031 4.57,-3.047 7.852,-3.047 1.249,0 2.675,0.234 4.277,0.703 1.601,0.469 3.886,1.367 6.855,2.695 l 92.812,43.359 0.938,0.586 c 8.672,3.984 13.008,8.594 13.008,13.828 0,5.234 -4.181,9.727 -12.539,13.477 -0.782,0.469 -1.406,0.781 -1.875,0.938 l -92.695,42.539 c -2.344,1.094 -4.356,1.875 -6.035,2.344 -1.681,0.469 -3.263,0.703 -4.746,0.703 -3.281,0 -5.899,-0.996 -7.852,-2.988 -1.954,-1.992 -2.93,-4.668 -2.93,-8.027 0,-2.812 0.839,-5.215 2.52,-7.207 1.679,-1.992 4.667,-4.004 8.965,-6.035 l 76.406,-36.212 z"
                 style="fill:#ff9421;fill-opacity:1" />
            </g>
          </g>
        </g>
      </g>
    </g>
  </g>
</svg>
