<?xml version="1.0" encoding="UTF-8" standalone="no"?>
<svg
   xmlns:dc="http://purl.org/dc/elements/1.1/"
   xmlns:cc="http://creativecommons.org/ns#"
   xmlns:rdf="http://www.w3.org/1999/02/22-rdf-syntax-ns#"
   xmlns:svg="http://www.w3.org/2000/svg"
   xmlns="http://www.w3.org/2000/svg"
   version="1.1"
   id="svg2"
   viewBox="0 0 40 39.999878"
   height="39.999878"
   width="40">
  <defs
     id="defs4" />
  <metadata
     id="metadata7">
    <rdf:RDF>
      <cc:Work
         rdf:about="">
        <dc:format>image/svg+xml</dc:format>
        <dc:type
           rdf:resource="http://purl.org/dc/dcmitype/StillImage" />
        <dc:title></dc:title>
      </cc:Work>
    </rdf:RDF>
  </metadata>
  <g
     transform="translate(-142.75052,-385.51895)"
     id="layer1">
    <g
       id="layer1-7"
       transform="matrix(0.69398907,0,0,0.69398907,-98.898649,-3.3254689)">
      <g
         transform="matrix(0.07980389,0,0,-0.07980389,347.19571,611.7438)"
         id="g10">
        <g
           transform="scale(0.1,0.1)"
           id="g12">
          <path
             id="path16"
             style="fill:#ff9421;fill-opacity:1;fill-rule:nonzero;stroke:none"
             d="m 2834.65,759.941 c -1145.83,0 -2074.709,928.889 -2074.709,2074.699 0,1145.83 928.879,2074.71 2074.709,2074.71 1145.82,0 2074.71,-928.88 2074.71,-2074.71 0,-1145.81 -928.89,-2074.699 -2074.71,-2074.699 z m 0,4783.109 c -1493.43,0 -2708.412,-1214.97 -2708.412,-2708.41 0,-1493.41 1214.982,-2708.39 2708.412,-2708.39 1493.43,0 2708.41,1214.98 2708.41,2708.39 0,1493.44 -1214.98,2708.41 -2708.41,2708.41" />
          <path
             id="path18"
             style="fill:#ff9421;fill-opacity:1;fill-rule:nonzero;stroke:none"
             d="m 3672.51,2869.77 0,365 c 0,0 12.25,220 183.69,220 171.46,0 172.98,-230 172.98,-230 l 0.01,-351.66 0,46.13 -0.01,-351.66 c 0,0 -1.52,-230 -172.98,-230 -171.44,0 -183.69,220 -183.69,220 l 0,365 0,-52.81" />
          <path
             id="path20"
             style="fill:#ff9421;fill-opacity:1;fill-rule:nonzero;stroke:none"
             d="m 2854.05,3478.41 -784.94,7.5 c 0,0 -46.66,327.5 378.34,585 l -132.5,165 c 0,0 -27.5,32.5 -2.5,52.5 25,20 65,-15 65,-15 l 140,-172.5 c 0,0 162.5,40 252.5,40 l 132.56,0 c 90,0 252.5,-40 252.5,-40 l 140,172.5 c 0,0 40,35 65,15 25,-20 -2.5,-52.5 -2.5,-52.5 l -132.5,-165 c 425,-257.5 378.34,-585 378.34,-585 l -784.94,-7.5 35.64,0" />
          <path
             id="path22"
             style="fill:#ff9421;fill-opacity:1;fill-rule:nonzero;stroke:none"
             d="m 2837.81,1992.58 -130.36,0 0,-365 c 0,0 -3.33,-220 -190,-220 -186.67,0 -178.33,230 -178.33,230 l -0.01,351.66 -150,0 c -120,0 -120,173.34 -120,173.34 l 0,1253.33 800.83,0 -67.42,0 800.83,0 0,-1253.33 c 0,0 0,-173.34 -120,-173.34 l -150,0 -0.01,-351.66 c 0,0 8.34,-230 -178.33,-230 -186.67,0 -190,220 -190,220 l 0,365 -130.36,0 3.16,0" />
          <path
             id="path24"
             style="fill:#ff9421;fill-opacity:1;fill-rule:nonzero;stroke:none"
             d="m 1999.95,2869.77 0,365 c 0,0 -12.24,220 -183.69,220 -171.46,0 -172.98,-230 -172.98,-230 l -0.01,-351.66 0,46.13 0.01,-351.66 c 0,0 1.52,-230 172.98,-230 171.45,0 183.69,220 183.69,220 l 0,365 0,-52.81" />
          <path
             id="path26"
             style="fill:#ffffff;fill-opacity:1;fill-rule:nonzero;stroke:none"
             d="m 3232.51,3810.91 c 0,-33.13 -26.87,-60 -60,-60 -33.13,0 -60,26.87 -60,60 0,33.14 26.87,60 60,60 33.13,0 60,-26.86 60,-60" />
          <path
             id="path30"
             style="fill:#ffffff;fill-opacity:1;fill-rule:nonzero;stroke:none"
             d="m 2553.39,3810.91 c 0,-33.13 -26.87,-60 -60,-60 -33.14,0 -60,26.87 -60,60 0,33.14 26.86,60 60,60 33.13,0 60,-26.86 60,-60" />
        </g>
      </g>
    </g>
  </g>
</svg>
